<svg width="105" height="105" viewBox="0 0 105 105" fill="none" xmlns="http://www.w3.org/2000/svg">
<path d="M52.6631 27.6958C74.2803 10.9137 63.1857 0 63.1857 0C64.8368 17.3492 45.3239 21.4457 40.0933 33.3677C36.5243 41.5029 42.5375 48.6258 52.6559 57.6037C51.7614 55.6152 50.3816 53.6832 48.9851 51.7273C44.2211 45.0558 39.2585 38.1058 52.6631 27.6958Z" fill="#E76F00"/>
<path d="M56.1142 61.2839C56.1142 61.2839 62.6177 56.0369 57.4674 50.2058C40.0086 30.4233 76.5623 21.4457 76.5623 21.4457C54.2446 32.1973 57.5764 38.579 63.186 46.3319C69.192 54.6453 56.1142 61.2839 56.1142 61.2839Z" fill="#E76F00"/>
<path d="M75.262 76.9309C95.295 66.694 86.0327 56.8569 79.5676 58.1821C77.9828 58.5063 77.2763 58.7875 77.2763 58.7875C77.2763 58.7875 77.8647 57.8813 78.9882 57.4888C91.7782 53.0673 101.614 70.5301 74.8594 77.4467C74.8594 77.4467 75.1695 77.1744 75.262 76.9309Z" fill="#5382A1"/>
<path d="M33.5771 63.9742C21.0431 62.3283 40.4497 57.7956 40.4497 57.7956C40.4497 57.7956 32.9133 57.2959 23.6445 61.7016C12.6846 66.9152 50.7548 69.2862 70.4616 64.1895C72.5104 62.8136 75.3421 61.6212 75.3421 61.6212C75.3421 61.6212 67.2778 63.0374 59.2466 63.7038C49.4196 64.5133 38.8694 64.6711 33.5771 63.9742Z" fill="#5382A1"/>
<path d="M38.346 73.7487C31.3564 73.038 35.933 69.7066 35.933 69.7066C17.8467 75.6095 45.9959 82.3036 71.2684 75.0363C68.5821 74.1051 66.8738 72.4018 66.8738 72.4018C54.5222 74.7406 47.3845 74.6658 38.346 73.7487Z" fill="#5382A1"/>
<path d="M41.3913 84.3252C34.4072 83.5357 38.4874 81.2024 38.4874 81.2024C22.0695 85.7135 48.4736 95.0332 69.3764 86.2237C65.9528 84.9145 63.5014 83.4031 63.5014 83.4031C54.177 85.1383 49.8523 85.2744 41.3913 84.3252Z" fill="#5382A1"/>
<path d="M85.1114 89.7054C85.1114 89.7054 88.1308 92.1519 81.7858 94.0446C69.7203 97.6388 31.5687 98.7243 20.9703 94.188C17.1604 92.5582 24.305 90.2964 26.5524 89.8216C28.8962 89.3219 30.2356 89.415 30.2356 89.415C25.9987 86.48 2.84973 95.1782 18.4771 97.6694C61.0952 104.466 96.1659 94.6086 85.1114 89.7054Z" fill="#5382A1"/>
<path d="M91.875 95.0509C91.1757 103.998 61.6471 105.88 42.418 104.67C29.8735 103.879 27.3594 101.902 27.3226 101.873C39.3287 103.819 59.5707 104.174 75.9832 101.136C90.5306 98.4428 91.875 95.0509 91.875 95.0509Z" fill="#5382A1"/>
</svg>
