<svg width="105" height="105" viewBox="0 0 105 105" fill="none" xmlns="http://www.w3.org/2000/svg">
<path d="M98.4375 6.5625H6.5625V98.4375H98.4375V6.5625Z" fill="#FFCA28"/>
<path d="M62.3438 82.9759L69.108 78.4996C69.6383 80.1652 72.9953 84.1208 77.2357 84.1208C81.4761 84.1208 83.4448 81.8048 83.4448 80.2692C83.4448 76.085 79.1149 74.6097 77.0352 73.9013C76.6959 73.7858 76.417 73.6906 76.2261 73.6076C76.128 73.565 75.98 73.5082 75.79 73.4357C73.477 72.552 64.9435 69.2918 64.9435 59.8411C64.9435 49.432 74.989 48.235 77.261 48.235C78.747 48.235 85.893 48.4171 89.4518 55.105L82.8893 59.6853C81.4508 56.7705 79.0604 55.8078 77.5891 55.8078C73.9545 55.8078 73.1971 58.4722 73.1971 59.6853C73.1971 63.0886 77.1461 64.614 80.4802 65.9019C81.3527 66.2389 82.1828 66.5595 82.8893 66.8935C86.5239 68.6109 91.875 71.4217 91.875 80.2692C91.875 84.7009 88.158 91.8757 78.8005 91.8757C66.2307 91.8757 62.8989 84.3291 62.3438 82.9759Z" fill="#3E3E3E"/>
<path d="M29.5312 83.8645L36.5817 79.3908C37.1339 81.0554 39.2808 84.1247 42.3954 84.1247C45.5103 84.1247 47.1046 80.9255 47.1046 79.3908V49.2194H55.7753V79.3908C55.9158 83.5524 53.6077 91.8757 43.4214 91.8757C34.0561 91.8757 30.1626 86.3097 29.5312 83.8645Z" fill="#3E3E3E"/>
</svg>
