<svg width="105" height="105" viewBox="0 0 105 105" fill="none" xmlns="http://www.w3.org/2000/svg">
<path d="M52.5 98.4375C77.8706 98.4375 98.4375 77.8706 98.4375 52.5C98.4375 27.1294 77.8706 6.5625 52.5 6.5625C27.1294 6.5625 6.5625 27.1294 6.5625 52.5C6.5625 77.8706 27.1294 98.4375 52.5 98.4375Z" fill="#8892BF"/>
<path d="M47.3786 32.8125H52.8911L51.3331 41.095H56.2865C59.0031 41.1531 61.0266 41.7601 62.3585 42.9165C63.7166 44.0724 64.1162 46.2702 63.5571 49.5078L60.8806 63.948H55.288L57.8445 50.1582C58.1106 48.7125 58.0308 47.6864 57.6049 47.0794C57.179 46.4723 56.2603 46.1688 54.8487 46.1688L50.4144 46.1255L47.1387 63.948H41.6262L47.3786 32.8125Z" fill="white"/>
<path fill-rule="evenodd" clip-rule="evenodd" d="M22.1186 41.0954H32.8243C35.9664 41.1239 38.2436 42.1073 39.6552 44.0439C41.0668 45.9808 41.5327 48.6258 41.0534 51.9796C40.8673 53.5123 40.4542 55.0151 39.815 56.4897C39.2024 57.9639 38.3506 59.2935 37.2586 60.479C35.9267 61.9821 34.502 62.936 32.9841 63.3412C31.4662 63.7462 29.8947 63.9483 28.2704 63.9483H23.4768L21.9588 72.1875H16.4062L22.1186 41.0954ZM24.3956 59.0481L26.7844 46.0822H27.5913C27.8846 46.0822 28.1905 46.0674 28.5101 46.0389C30.6409 46.01 32.4113 46.2269 33.8231 46.6892C35.261 47.1516 35.7404 48.9008 35.261 51.9363C34.6756 55.5502 33.5298 57.6604 31.8257 58.2674C30.1215 58.8459 27.9908 59.1202 25.4342 59.0914H24.875C24.7152 59.0914 24.5554 59.0766 24.3956 59.0481Z" fill="white"/>
<path fill-rule="evenodd" clip-rule="evenodd" d="M80.1822 41.0954H69.4765L63.7642 72.1875H69.3167L70.8349 63.9483H75.6285C77.2527 63.9483 78.8241 63.7462 80.342 63.3412C81.8603 62.936 83.2846 61.9821 84.6165 60.479C85.7085 59.2935 86.5603 57.9639 87.1729 56.4897C87.8121 55.0151 88.2252 53.5123 88.4113 51.9796C88.8907 48.6258 88.425 45.9808 87.0131 44.0439C85.6015 42.1073 83.3247 41.1239 80.1822 41.0954ZM74.1424 46.0822L71.7537 59.0481C71.9135 59.0766 72.0733 59.0914 72.2331 59.0914H72.7922C75.3489 59.1202 77.4795 58.8459 79.1837 58.2674C80.8877 57.6604 82.0335 55.5502 82.6192 51.9363C83.0986 48.9008 82.6192 47.1516 81.181 46.6892C79.7694 46.2269 77.9989 46.01 75.868 46.0389C75.5484 46.0674 75.2426 46.0822 74.9493 46.0822H74.1424Z" fill="white"/>
</svg>
