<svg width="105" height="105" viewBox="0 0 105 105" fill="none" xmlns="http://www.w3.org/2000/svg">
<g clip-path="url(#clip0_20_75)">
<path d="M46.4294 104.815C41.5956 103.853 37.4223 100.547 35.3934 96.0727C34.5009 94.1042 34.1211 92.2444 34.1277 89.8729C34.1457 83.0572 38.4315 77.366 45.0896 75.3143C46.3161 74.9364 47.1255 74.8366 49.0061 74.8315C50.3099 74.8285 51.7476 74.897 52.2012 74.9849L53.0258 75.1447L54.0405 73.1742C56.1128 69.1505 59.3423 65.9895 63.5172 63.8985C66.9614 62.1735 69.1257 61.6718 73.1237 61.6718C75.9239 61.6718 76.5735 61.7394 78.3801 62.218C86.1818 64.2852 92.2626 70.408 94.1765 78.1233C94.6557 80.0552 94.8948 84.3868 94.616 86.086L94.4256 87.2464L95.5182 87.4909C98.2566 88.1037 100.62 90.0169 101.828 92.5989C103.023 95.1523 102.804 98.4563 101.28 100.87C100.503 102.102 98.978 103.471 97.7057 104.081C97.0535 104.393 96.3588 104.733 96.1619 104.836C95.7198 105.068 47.5992 105.047 46.4294 104.815ZM96.4559 101.966C97.8098 101.293 99.1488 99.7882 99.7052 98.314C100.86 95.2556 99.3195 91.7021 96.2469 90.335C95.471 89.9897 94.8914 89.9099 93.2733 89.9252C92.1678 89.9357 91.2635 89.8659 91.2635 89.7702C91.2635 89.6745 91.4688 88.7774 91.7198 87.7764C92.3618 85.2156 92.3553 81.1324 91.7048 78.6387C90.2714 73.1399 86.555 68.5533 81.4716 66.0099C79.2378 64.8922 77.1132 64.381 74.2101 64.2625C69.9143 64.0872 66.9152 64.7641 63.6102 66.6551C59.7563 68.8601 56.4342 72.8559 55.1465 76.835C54.8988 77.6003 54.5985 78.2252 54.4791 78.2238C54.3591 78.2223 53.6591 78.0227 52.9221 77.7801C50.8719 77.1052 47.3754 77.1462 45.3293 77.8692C43.2696 78.5969 41.7869 79.5296 40.2431 81.0686C37.929 83.3754 36.6437 86.5194 36.6437 89.8729C36.6437 94.853 39.3869 99.2188 43.8498 101.342C46.4148 102.562 45.5273 102.525 71.5772 102.484L95.4887 102.447L96.4559 101.966ZM27.4652 92.3278C18.8145 91.1555 12.156 88.9834 7.23078 85.727C5.19858 84.3833 3.79549 82.8805 3.00439 81.2001L2.41504 79.9482L2.46903 46.0544L2.52304 12.1606L3.01519 11.2372C4.25929 8.9029 6.68493 6.91106 10.5468 5.05284C15.4299 2.70315 21.0611 1.23419 28.908 0.262943C32.1395 -0.137017 43.113 -0.066297 46.4294 0.375873C58.6416 2.00406 68.1185 5.99417 71.1395 10.7796C72.3299 12.6653 72.2991 11.9818 72.2991 36.6214V59.2434L71.6292 59.3472C71.2608 59.4042 70.4261 59.5079 69.7743 59.5775C63.0492 60.2956 56.075 64.9448 52.5 71.093L51.768 72.3517L48.8927 72.4874C45.4952 72.6479 43.764 73.0831 41.181 74.4261C36.746 76.7319 33.5762 80.7295 32.2836 85.6472C31.9266 87.0055 31.821 87.9901 31.8138 90.0276L31.7988 92.6558L30.6597 92.6314C30.0333 92.6179 28.5932 92.4815 27.4595 92.3278H27.4652ZM45.051 61.0872C43.4283 59.7101 42.0249 58.5166 41.9324 58.435C41.8394 58.3534 42.177 58.0447 42.6815 57.749C43.8002 57.0934 45.2406 55.5243 45.8523 54.2949C47.3471 51.2906 47.3138 47.5538 45.7653 44.5804C44.0628 41.3101 40.4999 39.5945 36.4632 40.1014C34.253 40.3789 32.8683 40.9989 31.4081 42.3649C29.1032 44.521 28.3049 46.6365 28.4261 50.2674C28.4951 52.3318 28.5686 52.703 29.159 53.9559C30.4296 56.6527 33.0863 58.6684 35.7927 58.9889C36.8109 59.1095 36.8993 59.1762 38.9225 61.352L41.0046 63.591H44.5028H48.0011L45.051 61.0872ZM36.2235 54.0573C34.8059 53.338 34.2675 52.1057 34.2675 49.5793C34.2675 47.9355 34.347 47.4556 34.7511 46.6335C35.3975 45.321 36.6861 44.532 37.9503 44.6745C39.1938 44.8146 39.8402 45.3176 40.4979 46.6567C40.997 47.6731 41.0691 48.0583 41.0633 49.6769C41.0633 51.6735 40.7028 52.6972 39.6986 53.6312C38.6495 54.6071 37.5686 54.7396 36.2235 54.0573ZM21.9596 58.8419C25.6871 57.9821 27.7118 54.8603 26.6384 51.6285C26.0979 50.0012 24.9555 48.9847 22.1655 47.6486C20.877 47.0316 19.7247 46.4006 19.6049 46.2466C19.1357 45.6438 19.1367 45.2448 19.6049 44.6963C20.3309 43.8523 21.9836 43.8119 24.2213 44.5835L25.9283 45.1722L25.8698 42.8941L25.8113 40.6159L24.6776 40.3464C22.9631 39.9389 19.2572 39.9588 17.7992 40.3835C14.8757 41.2349 13.3352 43.1457 13.3448 45.9083C13.3598 48.7514 14.6355 50.0991 19.1462 52.013C21.0545 52.8228 21.273 54.336 19.5672 54.9284C18.7778 55.2026 18.5531 55.1973 17.3039 54.8747C16.541 54.6778 15.3836 54.24 14.7317 53.902L13.5464 53.2874V55.7537V58.2199L14.7317 58.5499C15.3836 58.7314 16.0097 58.9121 16.1231 58.9516C16.5942 59.1157 21.1383 59.0303 21.9549 58.8419H21.9596ZM61.7864 56.6854V54.521H58.4882H55.1901V47.4094V40.2979H52.5104H49.8306V49.5738V58.8498H55.8086H61.7864V56.6854ZM45.9141 19.5732C51.2894 18.9502 55.7003 17.8235 58.4882 16.3612C60.3198 15.4005 60.759 15.0545 61.4631 14.017C63.6404 10.8085 58.7651 7.58258 49.3152 5.97881C40.4372 4.47206 28.7373 4.81288 21.249 6.79642C5.79829 10.8892 11.8892 18.4073 31.8566 19.8895C35.1336 20.1327 42.5201 19.9666 45.9141 19.5732Z" fill="#00BCF2"/>
</g>
<defs>
<clipPath id="clip0_20_75">
<rect width="105" height="105" fill="white"/>
</clipPath>
</defs>
</svg>
