<svg width="99" height="111" viewBox="0 0 99 111" fill="none" xmlns="http://www.w3.org/2000/svg">
<g clip-path="url(#clip0_20_7)">
<path d="M28.3175 10.3422L20.2905 17.5639V48.5012V79.4386L17.8824 84.1639C16.6338 86.8386 13.2446 91.4747 10.3013 94.506C7.44728 97.5374 5.12836 100.212 5.12836 100.39C5.12836 100.836 16.723 106.72 21.6284 108.86C31.1716 112.961 44.4608 111 50.9716 104.402C56.4121 98.9639 57.8392 94.2386 58.3743 79.5277L58.9094 67.3133H71.3067H83.6148L84.5067 64.9952C85.7554 61.8747 85.577 49.1253 84.3284 46.3614L83.3473 44.1325H70.504H57.75V40.6554C57.75 35.7518 59.2662 32.0072 61.8527 30.8482C63.1905 30.2241 69.6121 29.8675 78.2635 29.8675H92.5338V19.2578C92.5338 13.3735 92.177 8.38071 91.8203 8.11325C91.3743 7.84578 83.3473 7.57831 73.8932 7.48915C62.7446 7.39999 55.0743 6.95421 52.0419 6.1518C49.5446 5.5277 45.2635 4.7253 42.5878 4.36867C39.9121 4.1012 37.4148 3.65542 37.0581 3.4771C36.7013 3.20963 32.777 6.33012 28.3175 10.3422ZM50.0797 6.59759C51.5067 7.13252 50.6148 8.29156 43.6581 14.2651L35.5419 21.2193L35.2743 53.4048L35.0067 85.5904L32.5094 90.4048C31.0824 93.0795 27.4257 97.7157 24.3932 100.925C19.0419 106.364 18.7743 106.542 16.0986 105.561C11.55 104.046 11.7284 102.441 17.2581 96.4675C26.623 86.3928 26.5338 86.8386 26.5338 51.5325C26.5338 34.7711 26.8013 20.506 27.0689 19.7036C27.6932 18.0096 40.804 6.41927 41.4284 7.04337C41.6959 7.22168 39.2878 9.98553 36.1662 13.106C33.0446 16.2265 32.2419 17.1181 34.4716 15.0675C45.3527 5.43855 46.0662 4.99277 50.0797 6.59759ZM88.5203 10.5205C89.6797 11.412 89.8581 13.0169 89.6797 19.1687L89.4121 26.747L76.0338 27.1928C61.5851 27.7277 59.5338 28.2626 57.304 32.5422C55.6986 35.6627 55.5203 43.7759 57.1257 44.7566C57.6608 45.1133 63.1013 45.6482 68.9878 45.9157C76.123 46.2723 80.3148 46.8072 81.2959 47.6096C83.1689 49.2145 83.3473 62.1422 81.4743 63.6578C80.7608 64.2819 75.9446 64.7277 69.3446 64.906C55.6094 65.1735 55.9662 64.7277 55.9662 78.9928C55.9662 90.2265 54.9851 94.506 50.9716 100.569C46.8689 106.81 36.2554 110.019 26.7121 107.88C23.9473 107.345 23.8581 107.166 25.3743 106.096C26.8013 104.937 26.8013 104.937 24.75 105.383C22.7878 105.918 23.0554 105.383 26.8013 101.104C29.1203 98.4289 32.3311 93.7036 33.9365 90.494L36.7905 84.6988L36.9689 54.1181C37.0581 37.3566 37.504 23.0024 37.8608 22.3783C38.9311 20.506 50.704 10.253 51.7743 10.253C52.3094 10.253 51.9527 11.1446 50.9716 12.2145C49.9905 13.4626 50.4365 13.2843 51.9527 11.7687L54.6284 9.27229L70.8608 9.36144C81.8311 9.4506 87.5392 9.80722 88.5203 10.5205Z" fill="#EF767A"/>
<path d="M28.6743 42.7952C28.6743 48.1446 28.7635 50.2843 28.9419 47.4313C29.1203 44.5783 29.1203 40.2096 28.9419 37.6241C28.7635 35.0386 28.6743 37.3566 28.6743 42.7952Z" fill="#EF767A"/>
<path d="M28.6743 65.9759C28.6743 73.2868 28.8527 76.2289 28.9419 72.3952C29.1203 68.5615 29.1203 62.588 28.9419 59.0217C28.8527 55.4554 28.6743 58.5759 28.6743 65.9759Z" fill="#EF767A"/>
<path d="M40.1797 44.1325C40.1797 47.3422 40.3581 48.5904 40.5364 46.9855C40.7148 45.4699 40.7148 42.7952 40.5364 41.1904C40.3581 39.6747 40.1797 40.9229 40.1797 44.1325Z" fill="#EF767A"/>
</g>
<defs>
<clipPath id="clip0_20_7">
<rect width="99" height="111" fill="white"/>
</clipPath>
</defs>
</svg>
